# Blender v3.0.0 OBJ File: ''
# www.blender.org
mtllib aaab.mtl
o HalfCylinder_Plane
v -2.012784 -1.001759 -0.000000
v -2.012784 1.001759 -0.000000
v -1.974109 -1.001759 -0.394283
v -1.974109 1.001759 -0.394283
v -1.859570 -1.001759 -0.773415
v -1.859570 1.001759 -0.773415
v -1.673569 -1.001759 -1.122824
v -1.673569 1.001759 -1.122824
v -1.423253 -1.001759 -1.429084
v -1.423253 1.001759 -1.429084
v -1.118243 -1.001759 -1.680425
v -1.118243 1.001759 -1.680425
v -0.770259 -1.001759 -1.867188
v -0.770259 1.001759 -1.867188
v -0.392675 -1.001759 -1.982196
v -0.392675 1.001759 -1.982196
v 0.000000 -1.001759 -2.021030
v 0.000000 1.001759 -2.021030
v 0.000000 1.001759 0.000000
v 0.000000 -1.001759 0.000000
vt 0.750000 0.250000
vt 0.750000 0.010000
vt 0.500000 1.000000
vt 0.250000 0.250000
vt 0.750000 0.500000
vt 0.750000 1.000000
vt 0.718750 1.000000
vt 0.718750 0.500000
vt 0.687500 1.000000
vt 0.687500 0.500000
vt 0.656250 1.000000
vt 0.656250 0.500000
vt 0.625000 1.000000
vt 0.625000 0.500000
vt 0.593750 1.000000
vt 0.593750 0.500000
vt 0.562500 1.000000
vt 0.562500 0.500000
vt 0.531250 1.000000
vt 0.531250 0.500000
vt 0.500000 0.500000
vt 0.990000 0.250000
vt 0.490000 0.250000
vt 0.250000 0.010000
vt 0.296822 0.014612
vt 0.341844 0.028269
vt 0.383337 0.050447
vt 0.419706 0.080294
vt 0.449553 0.116663
vt 0.471731 0.158156
vt 0.485388 0.203178
vt 0.985388 0.203178
vt 0.971731 0.158156
vt 0.949553 0.116663
vt 0.919706 0.080294
vt 0.883337 0.050447
vt 0.841844 0.028269
vt 0.796822 0.014612
vn 1.0000 0.0000 0.0000
vn -0.9952 0.0000 -0.0976
vn -0.9573 0.0000 -0.2892
vn -0.8827 0.0000 -0.4699
vn -0.7743 0.0000 -0.6328
vn -0.6359 0.0000 -0.7717
vn -0.4729 0.0000 -0.8811
vn -0.2914 0.0000 -0.9566
vn -0.0984 0.0000 -0.9951
vn -0.0000 0.0000 1.0000
vn 0.0000 1.0000 0.0000
vn 0.0000 -1.0000 0.0000
usemtl None
s off
f 20/1/1 17/2/1 18/3/1 19/4/1
f 1/5/2 2/6/2 4/7/2 3/8/2
f 3/8/3 4/7/3 6/9/3 5/10/3
f 5/10/4 6/9/4 8/11/4 7/12/4
f 7/12/5 8/11/5 10/13/5 9/14/5
f 9/14/6 10/13/6 12/15/6 11/16/6
f 11/16/7 12/15/7 14/17/7 13/18/7
f 13/18/8 14/17/8 16/19/8 15/20/8
f 15/20/9 16/19/9 18/3/9 17/21/9
f 20/1/10 19/4/10 2/6/10 1/22/10
f 2/23/11 19/4/11 18/24/11 16/25/11 14/26/11 12/27/11 10/28/11 8/29/11 6/30/11 4/31/11
f 20/1/12 1/22/12 3/32/12 5/33/12 7/34/12 9/35/12 11/36/12 13/37/12 15/38/12 17/2/12
